<?xml version="1.0" encoding="utf-8"?>
<svg id="master-artboard" viewBox="0 0 1400 800" version="1.1" xmlns="http://www.w3.org/2000/svg" x="0px" y="0px" style="enable-background:new 0 0 336 235.2;" width="1400px" height="800px"><rect id="ee-background" x="0" y="0" width="1400" height="800" style="fill: white; fill-opacity: 0; pointer-events: none;"/><defs><style id="ee-google-fonts">@import url(https://fonts.googleapis.com/css?family=Audiowide:400);</style></defs>






















<path d="M 197.300003 79.900002 H 198.400003 V 88.600001 H 197.300003 V 79.900002 Z" class="st9" style="fill: rgb(248, 122, 50);" transform="matrix(4.198465824127197, 0, 0, 4.198465824127197, 5.38165283203125, -194.76339721679688)"/>
<path d="M 193.300003 79.900002 H 194.400003 V 88.600001 H 193.300003 V 79.900002 Z" class="st9" style="fill: rgb(248, 122, 50);" transform="matrix(4.198465824127197, 0, 0, 4.198465824127197, 5.38165283203125, -194.76339721679688)"/>
<path d="M 189.300003 77 H 190.400003 V 88.5 H 189.300003 V 77 Z" class="st9" style="fill: rgb(248, 122, 50);" transform="matrix(4.198465824127197, 0, 0, 4.198465824127197, 5.38165283203125, -194.76339721679688)"/>
<path d="M 185.300003 72.800003 H 186.400003 V 88.500003 H 185.300003 V 72.800003 Z" class="st9" style="fill: rgb(248, 122, 50);" transform="matrix(4.198465824127197, 0, 0, 4.198465824127197, 5.38165283203125, -194.76339721679688)"/>













































<path class="st21" d="M297.6,150.4c0,0,10,8.1,5.9,25.2c0,0-4.1-6-11-7.5" style="fill: rgb(245, 160, 0);" transform="matrix(4.198465824127197, 0, 0, 4.198465824127197, 5.38165283203125, -194.76339721679688)"/>




<g transform="matrix(4.198465824127197, 0, 0, 4.198465824127197, 5.38165283203125, -194.76339721679688)">
		<g>
			<path class="st8" d="M296.5,145.3c-0.8,3.5-4.3,5.8-7.8,5c-3.5-0.8-5.7-4.3-5-7.8c0.8-3.5,4.3-5.8,7.8-5&#10;&#9;&#9;&#9;&#9;C295,138.3,297.3,141.8,296.5,145.3z" style="fill: rgb(154, 84, 72);"/>
		</g>
	</g><g transform="matrix(4.198465824127197, 0, 0, 4.198465824127197, 5.38165283203125, -194.76339721679688)">
			<path class="st8" d="M295.3,144.4c-0.7,3.1-3.7,5.1-6.8,4.4c-3.1-0.7-5-3.7-4.4-6.8c0.7-3.1,3.7-5.1,6.8-4.4&#10;&#9;&#9;&#9;&#9;C294,138.2,296,141.3,295.3,144.4z" style="fill: rgb(154, 84, 72);"/>
		</g><g transform="matrix(4.198465824127197, 0, 0, 4.198465824127197, 5.38165283203125, -194.76339721679688)">
			<path class="st8" d="M288.6,150.8c-3.7-0.8-6.1-4.6-5.3-8.3c0.8-3.8,4.6-6.2,8.3-5.3l0,0c3.7,0.8,6.1,4.6,5.3,8.3&#10;&#9;&#9;&#9;&#9;C296.1,149.2,292.4,151.6,288.6,150.8L288.6,150.8z M291.4,138c-3.3-0.7-6.5,1.4-7.3,4.7c-0.7,3.3,1.4,6.6,4.6,7.3l0,0&#10;&#9;&#9;&#9;&#9;c3.3,0.7,6.5-1.4,7.3-4.7C296.8,141.9,294.7,138.7,291.4,138z" style="fill: rgb(154, 84, 72);"/>
		</g><g transform="matrix(4.198465824127197, 0, 0, 4.198465824127197, 5.38165283203125, -194.76339721679688)">
			
				<path d="M 291.300012 141 A 1.6 1.6 0 0 1 289.700012 142.6 A 1.6 1.6 0 0 1 288.100012 141 A 1.6 1.6 0 0 1 289.700012 139.4 A 1.6 1.6 0 0 1 291.300012 141 Z" transform="matrix(0.9765 0.2157 -0.2157 0.9765 37.2356 -59.1635)" class="st8" style="fill: rgb(154, 84, 72);"/>
		</g><g transform="matrix(4.198465824127197, 0, 0, 4.198465824127197, 5.38165283203125, -194.76339721679688)">
			<path d="M 287.8 141.899994 A 0.8 0.8 0 0 1 287 142.699994 A 0.8 0.8 0 0 1 286.2 141.899994 A 0.8 0.8 0 0 1 287 141.099994 A 0.8 0.8 0 0 1 287.8 141.899994 Z" class="st8" style="fill: rgb(154, 84, 72);"/>
		</g>


<g transform="matrix(4.198465824127197, 0, 0, 4.198465824127197, 5.38165283203125, -194.76339721679688)">
		<path class="st23" d="M34.4,115.4c0,0-7.3,20.7,4.7,17.4C51.1,129.5,34.4,115.4,34.4,115.4z" style="fill: rgb(241, 137, 6);"/>
	</g>
<g transform="matrix(4.198465824127197, 0, 0, 4.198465824127197, 5.38165283203125, -194.76339721679688)">
		<path class="st17" d="M35.9,120.7c0,0-4.3,14.1,3.3,12C46.7,130.7,35.9,120.7,35.9,120.7z" style="fill: rgb(255, 230, 115);"/>
	</g>


<path class="st24" d="M37.6,137.1c-0.4-1.1,0-2.2,0.8-2.5l2.8-0.9c0.8-0.3,1.8,0.4,2.1,1.6l0,0c0.4,1.1,0,2.3-0.8,2.5l-2.8,0.9&#10;&#9;&#9;C38.9,138.9,37.9,138.2,37.6,137.1L37.6,137.1z" style="fill: rgb(219, 126, 12);" transform="matrix(4.198465824127197, 0, 0, 4.198465824127197, 5.38165283203125, -194.76339721679688)"/>

<g transform="matrix(4.198465824127197, 0, 0, 4.198465824127197, 5.38165283203125, -194.76339721679688)">
		<path class="st8" d="M46.9,173.8c-0.9-2.9,0.6-6,3.5-6.9c2.9-0.9,6,0.6,6.9,3.5c0.9,2.9-0.6,6-3.5,6.9&#10;&#9;&#9;&#9;C51,178.2,47.9,176.7,46.9,173.8z" style="fill: rgb(154, 84, 72);"/>
	</g>
<g transform="matrix(4.198465824127197, 0, 0, 4.198465824127197, 5.38165283203125, -194.76339721679688)">
		<path class="st8" d="M48.2,173.9c-0.8-2.5,0.5-5.2,3.1-6.1c2.5-0.8,5.2,0.6,6.1,3.1c0.8,2.5-0.5,5.2-3.1,6.1&#10;&#9;&#9;&#9;C51.7,177.8,49,176.4,48.2,173.9z" style="fill: rgb(154, 84, 72);"/>
	</g>
<g transform="matrix(4.198465824127197, 0, 0, 4.198465824127197, 5.38165283203125, -194.76339721679688)">
		<path class="st8" d="M50.3,166.3c3.2-1,6.6,0.7,7.6,3.9c1,3.2-0.7,6.6-3.9,7.6c-3.2,1-6.6-0.7-7.6-3.9&#10;&#9;&#9;&#9;C45.4,170.8,47.1,167.3,50.3,166.3L50.3,166.3z M53.7,176.8c2.6-0.8,4-3.6,3.1-6.2c-0.8-2.6-3.6-4-6.2-3.2l-0.2-0.5l0.2,0.5&#10;&#9;&#9;&#9;c-2.6,0.8-4,3.6-3.1,6.2C48.3,176.2,51.1,177.6,53.7,176.8z" style="fill: rgb(154, 84, 72);"/>
	</g>

<path class="st3" d="M42.9,153.4c-0.5-1.6,0.4-3.3,1.9-3.8l0,0c1.6-0.5,3.3,0.4,3.8,1.9l2.5,7.8c0.5,1.6-0.4,3.3-1.9,3.8l0,0&#10;&#9;&#9;c-1.6,0.5-3.3-0.4-3.8-1.9L42.9,153.4z" style="fill: rgb(250, 116, 52);" transform="matrix(4.198465824127197, 0, 0, 4.198465824127197, 5.38165283203125, -194.76339721679688)"/>
<path class="st8" d="M46.5,160.7c-0.3-0.9,0.2-2,1.1-2.3c0.9-0.3,2,0.2,2.3,1.1c0.3,0.9-0.2,2-1.2,2.3&#10;&#9;&#9;C47.9,162.1,46.8,161.6,46.5,160.7z" style="fill: rgb(154, 84, 72);" transform="matrix(4.198465824127197, 0, 0, 4.198465824127197, 5.38165283203125, -194.76339721679688)"/>
<path class="st8" d="M45.7,154.5c-0.1-0.4,0.1-0.8,0.5-0.9c0.4-0.1,0.8,0.1,0.9,0.5c0.1,0.4-0.1,0.8-0.5,0.9&#10;&#9;&#9;C46.2,155.1,45.8,154.9,45.7,154.5z" style="fill: rgb(154, 84, 72);" transform="matrix(4.198465824127197, 0, 0, 4.198465824127197, 5.38165283203125, -194.76339721679688)"/>
<path class="st8" d="M44.9,152.2c-0.1-0.4,0.1-0.8,0.5-0.9c0.4-0.1,0.8,0.1,0.9,0.5c0.1,0.4-0.1,0.8-0.5,0.9&#10;&#9;&#9;C45.5,152.8,45,152.6,44.9,152.2z" style="fill: rgb(154, 84, 72);" transform="matrix(4.198465824127197, 0, 0, 4.198465824127197, 5.38165283203125, -194.76339721679688)"/><path d="M 18.931303024291992 86.41222381591797 L 233.053466796875 717.0993041992188 L 282.366455078125 584.73291015625 L 107.17558288574219 87.7099380493164" style="fill: rgb(44, 168, 10); fill-opacity: 1; stroke: rgb(0, 0, 0); stroke-opacity: 1; stroke-width: 0; paint-order: fill;"/>


<path d="M 384.8855285644531 269.38934326171875 L 234.35116577148438 717.0993041992188 L 325.1908874511719 715.8015747070312 L 431.60308837890625 401.7557678222656" style="fill: rgb(10, 18, 168); fill-opacity: 1; stroke: rgb(0, 0, 0); stroke-opacity: 1; stroke-width: 0; paint-order: stroke;" transform="matrix(1, 0, 0, 1, -6.630966140619421e-7, -1.5157842774035242)"/>










<path d="M 163.800003 106.400002 H 172.900003 V 136.400002 H 163.800003 V 106.400002 Z" class="st5" style="fill: rgb(248, 233, 211);" transform="matrix(4.198465824127197, 0, 0, 4.198465824127197, 5.38165283203125, -194.76339721679688)"/>







<path d="M 163.900003 157.100006 A 3.1 3.1 0 0 1 160.800003 160.200006 A 3.1 3.1 0 0 1 157.700003 157.100006 A 3.1 3.1 0 0 1 160.800003 154.000006 A 3.1 3.1 0 0 1 163.900003 157.100006 Z" class="st3" style="fill: rgb(250, 116, 52);" transform="matrix(4.198465824127197, 0, 0, 4.198465824127197, 5.38165283203125, -194.76339721679688)"/>
<path d="M 122.899997 158.5 A 4.2 4.2 0 0 1 118.699997 162.7 A 4.2 4.2 0 0 1 114.499997 158.5 A 4.2 4.2 0 0 1 118.699997 154.3 A 4.2 4.2 0 0 1 122.899997 158.5 Z" class="st3" style="fill: rgb(250, 116, 52);" transform="matrix(4.198465824127197, 0, 0, 4.198465824127197, 5.38165283203125, -194.76339721679688)"/>














<g transform="matrix(4.198465824127197, 0, 0, 4.198465824127197, 5.38165283203125, -194.76339721679688)">
		
			<path d="M 314.500006 204.5 A 2.9 2.9 0 0 1 311.600006 207.4 A 2.9 2.9 0 0 1 308.700006 204.5 A 2.9 2.9 0 0 1 311.600006 201.6 A 2.9 2.9 0 0 1 314.500006 204.5 Z" transform="matrix(-0.707 -0.7072 0.7072 -0.707 387.2602 569.3582)" class="st3" style="fill: rgb(250, 116, 52);"/>
	</g>











<path d="M 250.300003 87.5 A 3.5 3.5 0 0 1 246.800003 91 A 3.5 3.5 0 0 1 243.300003 87.5 A 3.5 3.5 0 0 1 246.800003 84 A 3.5 3.5 0 0 1 250.300003 87.5 Z" class="st5" style="fill: rgb(248, 233, 211);" transform="matrix(4.198465824127197, 0, 0, 4.198465824127197, 5.38165283203125, -194.76339721679688)"/>
<path d="M 248.900003 87.5 A 2.1 2.1 0 0 1 246.800003 89.6 A 2.1 2.1 0 0 1 244.700003 87.5 A 2.1 2.1 0 0 1 246.800003 85.4 A 2.1 2.1 0 0 1 248.900003 87.5 Z" class="st0" style="fill: rgb(56, 52, 75);" transform="matrix(4.198465824127197, 0, 0, 4.198465824127197, 5.38165283203125, -194.76339721679688)"/>





<path d="M 357.6336364746094 470.5343933105469" style="fill: rgb(10, 18, 168); fill-opacity: 1; stroke: rgb(0, 0, 0); stroke-opacity: 1; stroke-width: 0; paint-order: stroke;"/><path d="M 386.1832580566406 268.0916442871094 L 528.9313354492188 713.2061767578125 L 618.4733276367188 713.2061767578125 L 471.8321228027344 269.38934326171875" style="fill: rgb(225, 0, 15); fill-opacity: 1; stroke: rgb(0, 0, 0); stroke-opacity: 1; stroke-width: 0; paint-order: stroke;" transform="matrix(1.0017027169356334, 0, 0, 1.0017027169356334, -1.0530850092045838, -1.2143882357638736)"/><path d="M 754.73291015625 73.43512725830078 L 528.9313354492188 714.50390625 L 619.7710571289062 714.50390625 L 841.6795043945312 72.13741302490234" style="fill: rgb(44, 168, 10); fill-opacity: 1; stroke: rgb(0, 0, 0); stroke-opacity: 1; stroke-width: 0; paint-order: stroke;"/><path d="M 902.671875 513.3588256835938" style="fill: rgb(44, 168, 10); fill-opacity: 1; stroke: rgb(0, 0, 0); stroke-opacity: 1; stroke-width: 0; paint-order: stroke;"/><path d="M 901.3741455078125 512.0611572265625" style="fill: rgb(44, 168, 10); fill-opacity: 1; stroke: rgb(0, 0, 0); stroke-opacity: 1; stroke-width: 0; paint-order: stroke;"/><path d="M 842.9771728515625 69.54202270507812 L 750.8397827148438 73.43515014648438 L 903.9695434570312 513.35888671875 L 996.1069946289062 514.6565551757812" style="fill: rgb(255, 255, 25); fill-opacity: 1; stroke: rgb(0, 0, 0); stroke-opacity: 1; stroke-width: 0; paint-order: stroke;" transform="matrix(0.9852271692275992, 0, 0, 0.9852271692275992, 11.09202904723255, 1.027332532992571)"/><path d="M 1038.931396484375 65.64888763427734 L 1131.06884765625 66.94660186767578 L 993.5115356445312 512.0611572265625 L 902.671875 515.9542846679688" style="fill: rgb(225, 0, 15); fill-opacity: 1; stroke: rgb(0, 0, 0); stroke-opacity: 1; stroke-width: 0; paint-order: fill;" transform="matrix(0.990934923185984, 0, 0, 0.990934923185984, 10.253176329396439, 0.5951093136457151)"/><path d="M 1129.7711181640625 65.64888763427734 L 1037.6336669921875 66.94660186767578 L 1289.389404296875 709.3130493164062 L 1384.122314453125 709.3130493164062" style="fill: rgb(255, 255, 25); fill-opacity: 1; stroke: rgb(0, 0, 0); stroke-opacity: 1; stroke-width: 0; paint-order: fill;" transform="matrix(1.0037894121232298, 0, 0, 1.0037894121232298, -5.2450098784215715, -2.6878795549774526)"/><path d="M 205.80154418945312 229.1603546142578 L 643.1298217773438 223.96951293945312 L 205.80154418945312 229.1603546142578 Z" style="fill: rgb(225, 0, 15); fill-opacity: 1; stroke: rgb(0, 0, 0); stroke-opacity: 1; stroke-width: 6; paint-order: stroke;" transform="matrix(1.0118693351526857, 0, 0, 1.0118693351526857, -2.4427275029248823, -2.6583692130621532)"/><path d="M 205.80154418945312 229.1603546142578 L 643.1298217773438 223.96951293945312 L 205.80154418945312 229.1603546142578 Z" style="fill: rgb(225, 0, 15); fill-opacity: 1; stroke: rgb(0, 0, 0); stroke-opacity: 1; stroke-width: 6; paint-order: stroke;" transform="matrix(1.2282491923762007, -0.0019069765226837005, 0.0019069765226837005, 1.2282491923762007, -93.82229890153303, -197.93909424962348)"/><path d="M 162.97711181640625 98.09164428710938 L 204.50384521484375 213.58782958984375 L 162.97711181640625 98.09164428710938 Z" style="fill: rgb(225, 0, 15); fill-opacity: 1; stroke: rgb(0, 0, 0); stroke-opacity: 1; stroke-width: 6; paint-order: fill;"/><path d="M 227.8626251220703 156.48858642578125 L 204.50384521484375 213.58782958984375 L 227.8626251220703 156.48858642578125 Z" style="fill: rgb(225, 0, 15); fill-opacity: 1; stroke: rgb(0, 0, 0); stroke-opacity: 1; stroke-width: 6; paint-order: stroke;"/><path d="M 251.22140502929688 212.29013061523438 L 229.1603240966797 159.08401489257812 L 251.22140502929688 212.29013061523438 Z" style="fill: rgb(225, 0, 15); fill-opacity: 1; stroke: rgb(0, 0, 0); stroke-opacity: 1; stroke-width: 6; paint-order: stroke;" transform="matrix(1.0516020460487148, 0, 0, 1.0516020460487148, -12.9635385107446, -10.954605095694998)"/><path d="M 297.93896484375 94.1985092163086 L 252.5191192626953 210.99241638183594 L 297.93896484375 94.1985092163086 Z" style="fill: rgb(225, 0, 15); fill-opacity: 1; stroke: rgb(0, 0, 0); stroke-opacity: 1; stroke-width: 6; paint-order: stroke;" transform="matrix(1.0117537999208408, 0, 0, 1.0117537999208408, -3.501914981395859, -1.1071904301699695)"/><path d="M 294.04583740234375 213.58782958984375 L 297.93896484375 95.49622344970703 L 294.04583740234375 213.58782958984375 Z" style="fill: rgb(225, 0, 15); fill-opacity: 1; stroke: rgb(0, 0, 0); stroke-opacity: 1; stroke-width: 6; paint-order: stroke;"/><path d="M 423.81683349609375 151.29776000976562 L 295.3435363769531 155.19088745117188 L 423.81683349609375 151.29776000976562 Z" style="fill: rgb(225, 0, 15); fill-opacity: 1; stroke: rgb(0, 0, 0); stroke-opacity: 1; stroke-width: 6; paint-order: stroke;"/><path d="M 470.5343933105469 89.0076675415039 L 386.1832580566406 91.60308837890625 L 470.5343933105469 89.0076675415039 Z" style="fill: rgb(225, 0, 15); fill-opacity: 1; stroke: rgb(0, 0, 0); stroke-opacity: 1; stroke-width: 6; paint-order: stroke;" transform="matrix(1.0358610334737195, 0, 0, 1.0358610334737195, -16.87387707986967, -3.1919122011762164)"/><path d="M 382.2901306152344 212.29013061523438 L 386.1832580566406 92.90080261230469 L 382.2901306152344 212.29013061523438 Z" style="fill: rgb(225, 0, 15); fill-opacity: 1; stroke: rgb(0, 0, 0); stroke-opacity: 1; stroke-width: 6; paint-order: stroke;"/><path d="M 467.9389953613281 212.29013061523438 L 383.58782958984375 212.29013061523438 L 467.9389953613281 212.29013061523438 Z" style="fill: rgb(225, 0, 15); fill-opacity: 1; stroke: rgb(0, 0, 0); stroke-opacity: 1; stroke-width: 6; paint-order: stroke;" transform="matrix(1.0488234704609483, 0, 0, 1.0488234704609483, -22.846405717549608, -10.364740921243744)"/><path d="M 513.3588256835938 87.7099609375 L 466.6412658691406 212.29013061523438 L 513.3588256835938 87.7099609375 Z" style="fill: rgb(225, 0, 15); fill-opacity: 1; stroke: rgb(0, 0, 0); stroke-opacity: 1; stroke-width: 6; paint-order: stroke;" transform="matrix(1.0183653937308486, 0, 0, 1.0183653937308486, -9.428036958885249, -1.6108279667345342)"/><path d="M 558.7786865234375 213.58782958984375 L 513.3588256835938 90.30538177490234 L 558.7786865234375 213.58782958984375 Z" style="fill: rgb(225, 0, 15); fill-opacity: 1; stroke: rgb(0, 0, 0); stroke-opacity: 1; stroke-width: 6; paint-order: stroke;"/><path d="M 556.1832885742188 89.0076675415039 L 640.534423828125 87.7099609375 L 556.1832885742188 89.0076675415039 Z" style="fill: rgb(225, 0, 15); fill-opacity: 1; stroke: rgb(0, 0, 0); stroke-opacity: 1; stroke-width: 6; paint-order: stroke;"/><path d="M 600.305419921875 212.29013061523438 L 599.0076904296875 89.0076675415039 L 600.305419921875 212.29013061523438 Z" style="fill: rgb(225, 0, 15); fill-opacity: 1; stroke: rgb(0, 0, 0); stroke-opacity: 1; stroke-width: 6; paint-order: stroke;"/><path d="M 489.6512451171875 150.50814819335938 L 536.7384643554688 150.50814819335938" style="fill: rgb(225, 0, 15); fill-opacity: 0; stroke: rgb(0, 0, 0); stroke-opacity: 1; stroke-width: 6; paint-order: stroke;"/><path d="M 676.822998046875 692.0113525390625 L 722.7330322265625 574.2932739257812 L 756.8712768554688 633.1522827148438 L 786.3008422851562 573.1160888671875 L 831.03369140625 693.1885375976562 L 889.8927612304688 576.6476440429688 L 948.7517700195312 692.0113525390625 L 949.928955078125 574.2932739257812 L 949.928955078125 630.7979736328125 L 995.8390502929688 630.7979736328125 L 1057.052490234375 693.1885375976562" style="fill: rgb(225, 0, 15); fill-opacity: 0; stroke: rgb(0, 0, 0); stroke-opacity: 1; stroke-width: 6; paint-order: fill;"/><path d="M 1062.9383544921875 570.76171875 L 1175.94775390625 571.9389038085938" style="fill: rgb(225, 0, 15); fill-opacity: 0; stroke: rgb(0, 0, 0); stroke-opacity: 1; stroke-width: 6; paint-order: fill;"/><path d="M 1119.4429931640625 694.36572265625 L 1115.9114990234375 571.9389038085938" style="fill: rgb(225, 0, 15); fill-opacity: 0; stroke: rgb(0, 0, 0); stroke-opacity: 1; stroke-width: 6; paint-order: fill;"/><path d="M 1060.583984375 599.0140380859375 L 1052.34375 589.5966186523438 L 1038.217529296875 580.17919921875 L 1024.09130859375 574.2932739257812 L 1009.9652099609375 571.9389038085938 L 995.8390502929688 571.9389038085938 L 977.004150390625 573.1160888671875 L 949.928955078125 573.1160888671875" style="fill: rgb(225, 0, 15); fill-opacity: 0; stroke: rgb(0, 0, 0); stroke-opacity: 1; stroke-width: 6; paint-order: fill;" transform="matrix(1.023081437551159, 0, 0, 1.023081437551159, -24.479803003110945, -13.82610511234814)"/><path d="M 1055.875244140625 608.4315185546875 L 1044.1033935546875 614.3174438476562 L 1033.5087890625 621.3804931640625 L 1021.7369995117188 626.0892333984375 L 1008.7880249023438 627.2664184570312 L 995.8390502929688 628.443603515625" style="fill: rgb(225, 0, 15); fill-opacity: 0; stroke: rgb(0, 0, 0); stroke-opacity: 1; stroke-width: 6; paint-order: fill;" transform="matrix(1.0749880797617473, 0, 0, 1.0749880797617473, -77.14567733935547, -45.87920485728855)"/><path d="M 722.7330322265625 560.1671142578125 L 1175.94775390625 558.9899291992188" style="fill: rgb(225, 0, 15); fill-opacity: 0; stroke: rgb(0, 0, 0); stroke-opacity: 1; stroke-width: 6; paint-order: fill;"/><path d="M 1233.6295166015625 709.6690673828125 L 672.1142578125 713.2006225585938" style="fill: rgb(225, 0, 15); fill-opacity: 0; stroke: rgb(0, 0, 0); stroke-opacity: 1; stroke-width: 6; paint-order: fill;"/><path d="M 1194.7825927734375 390.6530456542969" style="fill: rgb(225, 0, 15); fill-opacity: 0; stroke: rgb(0, 0, 0); stroke-opacity: 1; stroke-width: 6; paint-order: fill;"/><path d="M 1056.2841796875 609.6278686523438 L 1061.154296875 600.2935180664062 L 1058.71923828125 596.6409912109375 L 1060.3426513671875 603.5402221679688 L 1056.2841796875 609.6278686523438 Z" style="fill: rgb(225, 0, 15); fill-opacity: 0; stroke: rgb(0, 0, 0); stroke-opacity: 1; stroke-width: 6; paint-order: fill;"/><path d="M 861.5452270507812 633.3258666992188 L 914.3839111328125 633.3258666992188" style="fill: rgb(225, 0, 15); fill-opacity: 0; stroke: rgb(0, 0, 0); stroke-opacity: 1; stroke-width: 6; paint-order: stroke;" transform="matrix(1.112491610922377, 0, 0, 1.112491610922377, -96.91661047342745, -71.24384698380574)"/></svg>